{
	"asset":{
		"generator":"Khronos glTF Blender I/O v4.1.63",
		"version":"2.0"
	},
	"extensionsUsed":[
		"KHR_materials_specular"
	],
	"scene":0,
	"scenes":[
		{
			"name":"Scene",
			"nodes":[
				0
			]
		}
	],
	"nodes":[
		{
			"mesh":0,
			"name":"hu-24636-551_asm",
			"rotation":[
				1,
				0,
				0,
				7.549790126404332e-08
			],
			"scale":[
				-0.1745924949645996,
				-0.1745924949645996,
				-0.1745924949645996
			],
			"translation":[
				0,
				5.594169616699219,
				-1.647278070449829
			]
		}
	],
	"materials":[
		{
			"doubleSided":true,
			"extensions":{
				"KHR_materials_specular":{
					"specularFactor":0
				}
			},
			"name":"DEFAULT_MTL.001",
			"pbrMetallicRoughness":{
				"baseColorFactor":[
					0.800000011920929,
					0.800000011920929,
					0.800000011920929,
					1
				],
				"metallicFactor":0
			}
		}
	],
	"meshes":[
		{
			"name":"hu-24636-551_asm.001",
			"primitives":[
				{
					"attributes":{
						"POSITION":0,
						"NORMAL":1,
						"TEXCOORD_0":2
					},
					"indices":3,
					"material":0
				}
			]
		}
	],
	"accessors":[
		{
			"bufferView":0,
			"componentType":5126,
			"count":3810,
			"max":[
				3679.5,
				2195.5,
				3050
			],
			"min":[
				-5013,
				-2600,
				-3860
			],
			"type":"VEC3"
		},
		{
			"bufferView":1,
			"componentType":5126,
			"count":3810,
			"type":"VEC3"
		},
		{
			"bufferView":2,
			"componentType":5126,
			"count":3810,
			"type":"VEC2"
		},
		{
			"bufferView":3,
			"componentType":5123,
			"count":9900,
			"type":"SCALAR"
		}
	],
	"bufferViews":[
		{
			"buffer":0,
			"byteLength":45720,
			"byteOffset":0,
			"target":34962
		},
		{
			"buffer":0,
			"byteLength":45720,
			"byteOffset":45720,
			"target":34962
		},
		{
			"buffer":0,
			"byteLength":30480,
			"byteOffset":91440,
			"target":34962
		},
		{
			"buffer":0,
			"byteLength":19800,
			"byteOffset":121920,
			"target":34963
		}
	],
	"buffers":[
		{
			"byteLength":141720,
			"uri":"hu246.bin"
		}
	]
}
